<svg width="108" height="152" viewBox="0 0 108 152" fill="none" xmlns="http://www.w3.org/2000/svg">
<g filter="url(#filter0_d_32_120)">
<rect x="10" y="6" width="88" height="132" rx="20" fill="white" fill-opacity="0.9"/>
<path d="M33.3176 92.4375L38.2199 87.4961C38.8124 86.8711 39.2648 86.3698 39.5773 85.9922C39.8898 85.6146 40.1275 85.2467 40.2902 84.8887C40.4595 84.5241 40.5441 84.1432 40.5441 83.7461C40.5441 83.2904 40.4302 82.89 40.2023 82.5449C39.9745 82.1999 39.662 81.9329 39.2648 81.7441C38.8677 81.5553 38.4217 81.4609 37.927 81.4609C37.4126 81.4609 36.9602 81.5651 36.5695 81.7734C36.1789 81.9818 35.8762 82.2747 35.6613 82.6523C35.453 83.0299 35.3488 83.4661 35.3488 83.9609H33.3176C33.3111 83.1146 33.5064 82.3659 33.9035 81.7148C34.3007 81.0638 34.854 80.5592 35.5637 80.2012C36.2733 79.8431 37.0741 79.6641 37.966 79.6641C38.8645 79.6641 39.662 79.8398 40.3586 80.1914C41.0617 80.5365 41.6086 81.015 41.9992 81.627C42.3898 82.2389 42.5884 82.9258 42.5949 83.6875C42.5884 84.2279 42.4842 84.7487 42.2824 85.25C42.0806 85.7448 41.7355 86.2982 41.2473 86.9102C40.759 87.5156 40.0689 88.2578 39.177 89.1367L36.3059 92.0469V92.1641H42.8293V94H33.3176V92.4375ZM49.2168 94.1953C48.3379 94.1953 47.5404 94.0293 46.8242 93.6973C46.1081 93.3587 45.5384 92.8965 45.1152 92.3105C44.6921 91.7181 44.4642 91.0508 44.4316 90.3086H46.5215C46.5605 90.7057 46.7038 91.0638 46.9512 91.3828C47.1986 91.7018 47.5208 91.9525 47.918 92.1348C48.3151 92.3105 48.748 92.3984 49.2168 92.3984C49.7832 92.3984 50.2878 92.2715 50.7305 92.0176C51.1797 91.7637 51.5312 91.4154 51.7852 90.9727C52.0391 90.5234 52.166 90.0221 52.166 89.4688C52.166 88.9023 52.0358 88.3945 51.7754 87.9453C51.515 87.4896 51.1536 87.1348 50.6914 86.8809C50.2292 86.6204 49.7051 86.487 49.1191 86.4805C47.9277 86.4805 47.1009 86.8971 46.6387 87.7305H44.6074L45.5254 79.8594H53.5332V81.6953H47.3027L46.834 85.6602H46.9707C47.2702 85.3737 47.6543 85.1426 48.123 84.9668C48.5983 84.791 49.0996 84.7031 49.627 84.7031C50.4993 84.7031 51.2871 84.9049 51.9902 85.3086C52.6999 85.7122 53.2533 86.2721 53.6504 86.9883C54.054 87.7044 54.2559 88.5117 54.2559 89.4102C54.2559 90.3281 54.041 91.1517 53.6113 91.8809C53.1816 92.61 52.5827 93.1797 51.8145 93.5898C51.0527 93.9935 50.1868 94.1953 49.2168 94.1953ZM58.8074 86.2461C58.215 86.2461 57.6714 86.1029 57.1766 85.8164C56.6818 85.5234 56.2879 85.1296 55.9949 84.6348C55.7085 84.14 55.5652 83.5964 55.5652 83.0039C55.5652 82.4115 55.7085 81.8678 55.9949 81.373C56.2879 80.8717 56.6818 80.4746 57.1766 80.1816C57.6779 79.8887 58.2215 79.7422 58.8074 79.7422C59.3934 79.7422 59.9337 79.8887 60.4285 80.1816C60.9298 80.4746 61.3237 80.8717 61.6102 81.373C61.9031 81.8678 62.0496 82.4115 62.0496 83.0039C62.0496 83.5964 61.9031 84.14 61.6102 84.6348C61.3237 85.1296 60.9331 85.5234 60.4383 85.8164C59.9435 86.1029 59.3999 86.2461 58.8074 86.2461ZM58.8074 84.6836C59.1069 84.6836 59.3836 84.6087 59.6375 84.459C59.8914 84.3027 60.0932 84.0977 60.243 83.8438C60.3927 83.5833 60.4676 83.3034 60.4676 83.0039C60.4676 82.7044 60.3927 82.4277 60.243 82.1738C60.0932 81.9199 59.8914 81.7181 59.6375 81.5684C59.3836 81.4186 59.1069 81.3438 58.8074 81.3438C58.5079 81.3438 58.228 81.4186 57.9676 81.5684C57.7137 81.7181 57.5086 81.9199 57.3523 82.1738C57.2026 82.4277 57.1277 82.7044 57.1277 83.0039C57.1277 83.3034 57.2026 83.5833 57.3523 83.8438C57.5086 84.0977 57.7137 84.3027 57.9676 84.459C58.228 84.6087 58.5079 84.6836 58.8074 84.6836ZM73.8855 84.4688C73.7684 83.8763 73.5372 83.3685 73.1922 82.9453C72.8471 82.5156 72.4174 82.1901 71.9031 81.9688C71.3953 81.7474 70.8387 81.6367 70.2332 81.6367C69.4129 81.6367 68.6805 81.8451 68.0359 82.2617C67.3914 82.6719 66.8868 83.2741 66.5223 84.0684C66.1577 84.8626 65.9754 85.8164 65.9754 86.9297C65.9754 88.043 66.1577 89 66.5223 89.8008C66.8934 90.5951 67.3979 91.1973 68.0359 91.6074C68.6805 92.0176 69.4129 92.2227 70.2332 92.2227C70.8322 92.2227 71.3855 92.1152 71.8934 91.9004C72.4012 91.679 72.8276 91.36 73.1727 90.9434C73.5242 90.5202 73.7618 90.0156 73.8855 89.4297L76.0535 89.4492C75.9038 90.3737 75.562 91.1973 75.0281 91.9199C74.5008 92.6361 73.8204 93.196 72.9871 93.5996C72.1603 93.9967 71.2358 94.1953 70.2137 94.1953C68.9832 94.1953 67.8862 93.9023 66.9227 93.3164C65.9591 92.7305 65.2039 91.8906 64.657 90.7969C64.1167 89.6966 63.8465 88.4076 63.8465 86.9297C63.8465 85.4518 64.1199 84.166 64.6668 83.0723C65.2137 81.972 65.9689 81.1289 66.9324 80.543C67.896 79.957 68.9897 79.6641 70.2137 79.6641C71.2098 79.6641 72.1212 79.8561 72.948 80.2402C73.7749 80.6178 74.4585 81.168 74.9988 81.8906C75.5392 82.6133 75.8908 83.4727 76.0535 84.4688H73.8855Z" fill="#363636"/>
<g filter="url(#filter1_i_32_120)">
<circle cx="53.2001" cy="43.2001" r="14.6" fill="#FFAB0B"/>
</g>
<circle cx="53.1" cy="43.1" r="20.1" stroke="#FFE200" stroke-width="4" stroke-linecap="round" stroke-dasharray="0.2 14"/>
<g opacity="0.7" filter="url(#filter2_f_32_120)">
<ellipse cx="51.0999" cy="45.7998" rx="7.7" ry="8" fill="white" fill-opacity="0.5"/>
<ellipse cx="58.6001" cy="38.7999" rx="10" ry="10.4" fill="white" fill-opacity="0.5"/>
<ellipse cx="67.3001" cy="38.6001" rx="7.7" ry="8" fill="white" fill-opacity="0.5"/>
<ellipse cx="42.6001" cy="48.1998" rx="9" ry="9.4" fill="white" fill-opacity="0.5"/>
<ellipse cx="48.4999" cy="57.6999" rx="5.1" ry="5.3" fill="white" fill-opacity="0.5"/>
</g>
<path d="M10 106H98V118C98 129.046 89.0457 138 78 138H30C18.9543 138 10 129.046 10 118V106Z" fill="#505050"/>
<path d="M40.2518 126.137C39.5227 126.137 38.8983 125.938 38.3788 125.542C37.8638 125.146 37.4696 124.567 37.1962 123.806C36.9273 123.045 36.7929 122.126 36.7929 121.051C36.7929 119.989 36.9296 119.077 37.203 118.316C37.4764 117.551 37.8729 116.967 38.3925 116.566C38.912 116.165 39.5318 115.965 40.2518 115.965C40.9719 115.965 41.5917 116.165 42.1112 116.566C42.6307 116.967 43.0272 117.551 43.3007 118.316C43.5741 119.077 43.7108 119.989 43.7108 121.051C43.7108 122.126 43.5741 123.045 43.3007 123.806C43.0318 124.567 42.6376 125.146 42.118 125.542C41.5985 125.938 40.9764 126.137 40.2518 126.137ZM40.2518 125.043C40.7258 125.043 41.1314 124.888 41.4686 124.578C41.8059 124.268 42.0634 123.815 42.2411 123.218C42.4188 122.621 42.5077 121.898 42.5077 121.051C42.5077 120.203 42.4188 119.479 42.2411 118.877C42.0634 118.275 41.8059 117.817 41.4686 117.503C41.1314 117.188 40.7258 117.031 40.2518 117.031C39.7779 117.031 39.37 117.188 39.0282 117.503C38.691 117.817 38.4312 118.275 38.2489 118.877C38.0712 119.479 37.9823 120.203 37.9823 121.051C37.9823 121.898 38.0712 122.621 38.2489 123.218C38.4266 123.815 38.6841 124.268 39.0214 124.578C39.3632 124.888 39.7733 125.043 40.2518 125.043ZM48.1 126.137C47.4164 126.137 46.8058 126.021 46.268 125.788C45.7348 125.551 45.3201 125.223 45.0239 124.804C44.7276 124.384 44.5818 123.908 44.5864 123.375C44.5818 122.956 44.6661 122.566 44.8393 122.206C45.017 121.841 45.2608 121.541 45.5707 121.304C45.8806 121.067 46.2224 120.919 46.5961 120.859V120.805C46.2726 120.727 45.9877 120.584 45.7416 120.374C45.4955 120.16 45.3041 119.898 45.1674 119.588C45.0353 119.278 44.9692 118.945 44.9692 118.59C44.9692 118.093 45.1036 117.644 45.3725 117.243C45.6459 116.842 46.0196 116.53 46.4936 116.307C46.9721 116.079 47.5076 115.965 48.1 115.965C48.6925 115.965 49.2257 116.079 49.6996 116.307C50.1782 116.53 50.5541 116.842 50.8276 117.243C51.101 117.64 51.24 118.089 51.2446 118.59C51.24 118.945 51.1671 119.278 51.0258 119.588C50.8891 119.898 50.6977 120.16 50.4516 120.374C50.2055 120.584 49.923 120.727 49.6039 120.805V120.859C49.9731 120.919 50.3103 121.067 50.6157 121.304C50.9256 121.541 51.1694 121.841 51.3471 122.206C51.5294 122.566 51.6228 122.956 51.6274 123.375C51.6228 123.908 51.4702 124.384 51.1694 124.804C50.8686 125.223 50.4516 125.551 49.9184 125.788C49.3852 126.021 48.7791 126.137 48.1 126.137ZM48.1 125.057C48.5649 125.057 48.9705 124.984 49.3168 124.838C49.6632 124.692 49.9298 124.487 50.1166 124.223C50.3035 123.958 50.3969 123.653 50.3969 123.307C50.3969 122.947 50.2967 122.623 50.0961 122.336C49.9002 122.044 49.6267 121.816 49.2758 121.652C48.9295 121.488 48.5375 121.406 48.1 121.406C47.6625 121.406 47.2683 121.488 46.9174 121.652C46.5665 121.816 46.2931 122.044 46.0971 122.336C45.9011 122.623 45.8077 122.947 45.8168 123.307C45.8077 123.653 45.8943 123.958 46.0766 124.223C46.2635 124.487 46.5301 124.692 46.8764 124.838C47.2228 124.984 47.6306 125.057 48.1 125.057ZM48.1 120.367C48.4692 120.367 48.8019 120.297 49.0981 120.155C49.3943 120.014 49.6245 119.816 49.7885 119.561C49.9571 119.305 50.0414 119.014 50.0414 118.686C50.0414 118.362 49.9594 118.075 49.7954 117.824C49.6358 117.574 49.408 117.38 49.1118 117.243C48.8201 117.102 48.4829 117.031 48.1 117.031C47.7127 117.031 47.3709 117.102 47.0746 117.243C46.783 117.38 46.5574 117.574 46.3979 117.824C46.2384 118.075 46.1586 118.362 46.1586 118.686C46.1586 119.014 46.2407 119.305 46.4047 119.561C46.5733 119.816 46.8035 120.014 47.0952 120.155C47.3914 120.297 47.7263 120.367 48.1 120.367ZM53.0635 127.49H51.9971L55.1826 115.637H56.2627L53.0635 127.49ZM56.8238 125.098L60.2007 121.543C60.6474 121.074 60.9869 120.695 61.2193 120.408C61.4563 120.117 61.634 119.836 61.7525 119.567C61.8755 119.294 61.9371 119.009 61.9371 118.713C61.9371 118.385 61.8505 118.093 61.6773 117.838C61.5041 117.583 61.2671 117.384 60.9664 117.243C60.6701 117.102 60.3375 117.031 59.9683 117.031C59.581 117.031 59.2414 117.109 58.9498 117.264C58.6581 117.419 58.4325 117.637 58.273 117.92C58.1181 118.202 58.0406 118.526 58.0406 118.891H56.8785C56.8739 118.316 57.0061 117.808 57.275 117.366C57.5484 116.924 57.9244 116.58 58.4029 116.334C58.8814 116.088 59.4169 115.965 60.0093 115.965C60.5972 115.965 61.1236 116.086 61.5884 116.327C62.0578 116.569 62.4247 116.899 62.689 117.318C62.9533 117.738 63.0855 118.202 63.0855 118.713C63.0855 119.091 63.0171 119.453 62.8804 119.8C62.7437 120.142 62.5136 120.522 62.19 120.941C61.871 121.356 61.413 121.871 60.816 122.486L58.5464 124.824V124.906H63.2632V126H56.8375L56.8238 125.098ZM67.7208 126.137C67.1329 126.137 66.5974 126.025 66.1144 125.802C65.6359 125.574 65.253 125.262 64.9659 124.865C64.6834 124.464 64.5307 124.013 64.5079 123.512H65.6974C65.7293 123.803 65.8387 124.068 66.0255 124.305C66.2124 124.537 66.4539 124.722 66.7501 124.858C67.0463 124.991 67.3699 125.057 67.7208 125.057C68.1401 125.057 68.5183 124.961 68.8556 124.77C69.1928 124.578 69.4571 124.316 69.6486 123.983C69.84 123.651 69.9357 123.279 69.9357 122.869C69.9357 122.445 69.8354 122.065 69.6349 121.728C69.4389 121.386 69.1655 121.119 68.8146 120.928C68.4682 120.732 68.0763 120.632 67.6388 120.627C66.7592 120.613 66.144 120.91 65.7931 121.516H64.6036L65.3009 116.102H70.6603V117.195H66.3263L65.9571 120.094H66.0529C66.2762 119.921 66.5473 119.782 66.8663 119.677C67.1853 119.572 67.5157 119.52 67.8575 119.52C68.4773 119.52 69.0356 119.663 69.5323 119.95C70.0336 120.233 70.4256 120.627 70.7081 121.133C70.9952 121.639 71.1388 122.208 71.1388 122.842C71.1388 123.471 70.9907 124.036 70.6945 124.537C70.3982 125.038 69.9904 125.43 69.4708 125.713C68.9513 125.995 68.368 126.137 67.7208 126.137Z" fill="white"/>
</g>
<defs>
<filter id="filter0_d_32_120" x="0" y="0" width="108" height="152" filterUnits="userSpaceOnUse" color-interpolation-filters="sRGB">
<feFlood flood-opacity="0" result="BackgroundImageFix"/>
<feColorMatrix in="SourceAlpha" type="matrix" values="0 0 0 0 0 0 0 0 0 0 0 0 0 0 0 0 0 0 127 0" result="hardAlpha"/>
<feOffset dy="4"/>
<feGaussianBlur stdDeviation="5"/>
<feComposite in2="hardAlpha" operator="out"/>
<feColorMatrix type="matrix" values="0 0 0 0 0 0 0 0 0 0 0 0 0 0 0 0 0 0 0.2 0"/>
<feBlend mode="normal" in2="BackgroundImageFix" result="effect1_dropShadow_32_120"/>
<feBlend mode="normal" in="SourceGraphic" in2="effect1_dropShadow_32_120" result="shape"/>
</filter>
<filter id="filter1_i_32_120" x="36.6001" y="28.6001" width="31.2002" height="31.8002" filterUnits="userSpaceOnUse" color-interpolation-filters="sRGB">
<feFlood flood-opacity="0" result="BackgroundImageFix"/>
<feBlend mode="normal" in="SourceGraphic" in2="BackgroundImageFix" result="shape"/>
<feColorMatrix in="SourceAlpha" type="matrix" values="0 0 0 0 0 0 0 0 0 0 0 0 0 0 0 0 0 0 127 0" result="hardAlpha"/>
<feOffset dx="-2" dy="2.6"/>
<feGaussianBlur stdDeviation="2.4"/>
<feComposite in2="hardAlpha" operator="arithmetic" k2="-1" k3="1"/>
<feColorMatrix type="matrix" values="0 0 0 0 1 0 0 0 0 0.886275 0 0 0 0 0 0 0 0 0.9 0"/>
<feBlend mode="normal" in2="shape" result="effect1_innerShadow_32_120"/>
</filter>
<filter id="filter2_f_32_120" x="22.8001" y="17.5999" width="62.9999" height="56.2001" filterUnits="userSpaceOnUse" color-interpolation-filters="sRGB">
<feFlood flood-opacity="0" result="BackgroundImageFix"/>
<feBlend mode="normal" in="SourceGraphic" in2="BackgroundImageFix" result="shape"/>
<feGaussianBlur stdDeviation="5.4" result="effect1_foregroundBlur_32_120"/>
</filter>
</defs>
</svg>
