<svg width="69" height="25" viewBox="0 0 69 25" fill="none" xmlns="http://www.w3.org/2000/svg">
<rect width="69" height="25" rx="12.5" fill="#363636"/>
<path d="M16.7625 10.1445H18.2859V11.0469H16.7625V13.7305H15.6492V7.49609H16.7625V10.1445ZM13.8797 8.24609C13.8797 9.14062 13.6844 9.95508 13.2938 10.6895C12.9031 11.4199 12.3406 12.0488 11.6063 12.5762C10.8719 13.1035 9.98906 13.5156 8.95781 13.8125L8.50078 12.9102C9.31719 12.6797 10.0262 12.3789 10.6277 12.0078C11.2293 11.6328 11.7039 11.2031 12.0516 10.7188C12.3992 10.2344 12.6063 9.71094 12.6727 9.14844H8.96953V8.24609H13.8797ZM13.4109 13.8477C14.1141 13.8477 14.7254 13.9316 15.2449 14.0996C15.7684 14.2637 16.1707 14.502 16.452 14.8145C16.7371 15.123 16.8797 15.4883 16.8797 15.9102C16.8797 16.3359 16.7371 16.7051 16.452 17.0176C16.1707 17.3301 15.7684 17.5684 15.2449 17.7324C14.7254 17.9004 14.1141 17.9844 13.4109 17.9844C12.7117 17.9844 12.0984 17.9004 11.5711 17.7324C11.0438 17.5684 10.6375 17.3301 10.3523 17.0176C10.0672 16.7051 9.92656 16.3359 9.93047 15.9102C9.92656 15.4883 10.0672 15.123 10.3523 14.8145C10.6375 14.502 11.0438 14.2637 11.5711 14.0996C12.0984 13.9316 12.7117 13.8477 13.4109 13.8477ZM13.4109 14.7266C12.9266 14.7266 12.5047 14.7754 12.1453 14.873C11.7859 14.9668 11.5086 15.1035 11.3133 15.2832C11.1219 15.459 11.0281 15.668 11.032 15.9102C11.0281 16.1523 11.1219 16.3652 11.3133 16.5488C11.5086 16.7285 11.7859 16.8672 12.1453 16.9648C12.5047 17.0586 12.9266 17.1055 13.4109 17.1055C13.8914 17.1055 14.3113 17.0586 14.6707 16.9648C15.0301 16.8672 15.3055 16.7285 15.4969 16.5488C15.6922 16.3652 15.7898 16.1523 15.7898 15.9102C15.7898 15.668 15.6922 15.459 15.4969 15.2832C15.3055 15.1035 15.0301 14.9668 14.6707 14.873C14.3113 14.7754 13.8914 14.7266 13.4109 14.7266ZM23.7825 8.42188C23.7786 8.87891 23.9446 9.32031 24.2805 9.74609C24.6204 10.168 25.0794 10.5273 25.6575 10.8242C26.2356 11.1172 26.8645 11.3086 27.5442 11.3984L27.1106 12.3125C26.5403 12.2227 25.9993 12.0664 25.4876 11.8438C24.9759 11.6211 24.5227 11.3457 24.1282 11.0176C23.7337 10.6895 23.4251 10.3223 23.2024 9.91602C22.9759 10.3223 22.6653 10.6895 22.2708 11.0176C21.8802 11.3457 21.4309 11.6211 20.9231 11.8438C20.4153 12.0625 19.8763 12.2188 19.3059 12.3125L18.8606 11.3984C19.5403 11.3086 20.1673 11.1172 20.7415 10.8242C21.3157 10.5312 21.7708 10.1738 22.1067 9.75195C22.4466 9.32617 22.6184 8.88281 22.6223 8.42188V7.84766H23.7825V8.42188ZM27.9778 14.2578H23.7122V17.9961H22.6223V14.2578H18.4036V13.3438H27.9778V14.2578ZM36.5564 10.625H38.0564V11.5391H36.5564V14.5742H35.4431V7.50781H36.5564V10.625ZM28.2244 13.4023C29.3963 13.4023 30.3103 13.3926 30.9666 13.373V12.6699C30.3611 12.6035 29.8845 12.4355 29.5369 12.166C29.1892 11.8965 29.0173 11.5508 29.0213 11.1289C29.0173 10.8125 29.117 10.5371 29.3201 10.3027C29.5271 10.0684 29.8201 9.88867 30.199 9.76367C30.5779 9.63867 31.0173 9.57812 31.5173 9.58203C32.0134 9.57812 32.449 9.63867 32.824 9.76367C33.2029 9.88867 33.4959 10.0684 33.7029 10.3027C33.9099 10.5371 34.0134 10.8125 34.0134 11.1289C34.0134 11.5469 33.8396 11.8926 33.492 12.166C33.1482 12.4355 32.6775 12.6035 32.0798 12.6699V13.332C33.1267 13.2812 34.0486 13.1992 34.8455 13.0859L34.9392 13.8828C33.9431 14.0586 32.9177 14.1719 31.863 14.2227C30.8123 14.2695 29.6384 14.293 28.3416 14.293L28.2244 13.4023ZM36.5564 17.9961H35.4431V15.9336H29.5369V15.0664H36.5564V17.9961ZM34.5525 9.23047H28.4939V8.39844H30.9666V7.41406H32.0798V8.39844H34.5525V9.23047ZM31.5173 10.3438C31.0642 10.3359 30.7107 10.4023 30.4568 10.543C30.2029 10.6836 30.0759 10.8789 30.0759 11.1289C30.0759 11.375 30.2029 11.5723 30.4568 11.7207C30.7146 11.8652 31.0681 11.9375 31.5173 11.9375C31.9588 11.9375 32.3064 11.8652 32.5603 11.7207C32.8181 11.5723 32.947 11.375 32.947 11.1289C32.947 10.8789 32.8201 10.6836 32.5662 10.543C32.3123 10.4023 31.9627 10.3359 31.5173 10.3438ZM47.7834 13.0742H45.2639V13.918H46.5998V16.2266H40.4358V17.1055H46.928V17.8906H39.3225V15.4883H45.4983V14.7148H39.3108V13.918H40.7053V13.0742H38.1741V12.2422H47.7834V13.0742ZM46.5764 10.0273H40.5061V10.8008H46.7522V11.5859H39.4045V9.28906H45.4631V8.53906H39.3811V7.76562H46.5764V10.0273ZM44.1623 13.918V13.0742H41.8069V13.918H44.1623ZM52.8352 12.5469C52.4562 12.5508 52.132 12.4648 51.8625 12.2891C51.593 12.1133 51.3898 11.8672 51.2531 11.5508C51.1164 11.2305 51.05 10.8594 51.0539 10.4375C51.05 10.0234 51.1184 9.6582 51.259 9.3418C51.3996 9.02539 51.6047 8.7793 51.8742 8.60352C52.1437 8.42773 52.4641 8.33984 52.8352 8.33984C53.2141 8.33984 53.5363 8.42773 53.802 8.60352C54.0715 8.7793 54.2746 9.02539 54.4113 9.3418C54.548 9.6543 54.6164 10.0195 54.6164 10.4375C54.6164 10.8594 54.5461 11.2305 54.4055 11.5508C54.2648 11.8711 54.0598 12.1191 53.7902 12.2949C53.5246 12.4668 53.2062 12.5508 52.8352 12.5469ZM52.8352 11.7266C53.1047 11.7266 53.3059 11.6113 53.4387 11.3809C53.5754 11.1504 53.6437 10.8359 53.6437 10.4375C53.6437 10.0391 53.5773 9.72656 53.4445 9.5C53.3117 9.27344 53.1086 9.16016 52.8352 9.16016C52.5695 9.16406 52.3664 9.28125 52.2258 9.51172C52.0852 9.73828 52.0148 10.0469 52.0148 10.4375C52.0148 10.8359 52.0832 11.1504 52.2199 11.3809C52.3605 11.6113 52.5656 11.7266 52.8352 11.7266ZM58.1906 17.1758C57.8117 17.1758 57.4875 17.0879 57.218 16.9121C56.9484 16.7363 56.7453 16.4902 56.6086 16.1738C56.4719 15.8574 56.4055 15.4883 56.4094 15.0664C56.4055 14.6484 56.4738 14.2812 56.6145 13.9648C56.7551 13.6445 56.9602 13.3965 57.2297 13.2207C57.5031 13.0449 57.8234 12.957 58.1906 12.957C58.5695 12.957 58.8918 13.0449 59.1574 13.2207C59.427 13.3965 59.6301 13.6426 59.7668 13.959C59.9035 14.2754 59.9719 14.6445 59.9719 15.0664C59.9719 15.4844 59.9016 15.8535 59.7609 16.1738C59.6203 16.4902 59.4152 16.7363 59.1457 16.9121C58.8801 17.0879 58.5617 17.1758 58.1906 17.1758ZM58.1906 16.3438C58.4562 16.3438 58.6574 16.2305 58.7941 16.0039C58.9309 15.7734 58.9992 15.4609 58.9992 15.0664C58.9992 14.6641 58.9328 14.3496 58.8 14.123C58.6672 13.8926 58.4641 13.7773 58.1906 13.7773C57.925 13.7812 57.7219 13.9004 57.5812 14.1348C57.4406 14.3652 57.3703 14.6758 57.3703 15.0664C57.3703 15.457 57.4406 15.7676 57.5812 15.998C57.7258 16.2285 57.9289 16.3438 58.1906 16.3438ZM57.8391 8.51562H58.9055L53.0812 17H52.0148L57.8391 8.51562Z" fill="white"/>
</svg>
